<?xml version="1.0" encoding="UTF-8" standalone="no"?>
<!DOCTYPE svg PUBLIC "-//W3C//DTD SVG 1.1//EN"
 "http://www.w3.org/Graphics/SVG/1.1/DTD/svg11.dtd">
<!-- Generated by graphviz version 13.1.2 (0)
 -->
<!-- Title: dependency&#45;cruiser output Pages: 1 -->
<svg width="393pt" height="2038pt"
 viewBox="0.00 0.00 393.00 2038.00" xmlns="http://www.w3.org/2000/svg" xmlns:xlink="http://www.w3.org/1999/xlink">
<g id="graph0" class="graph" transform="scale(1 1) rotate(0) translate(4 2034)">
<title>dependency&#45;cruiser output</title>
<polygon fill="white" stroke="none" points="-4,4 -4,-2034 389.12,-2034 389.12,4 -4,4"/>
<g id="clust1" class="cluster">
<title>cluster_app</title>
<path fill="#ffffff" stroke="black" stroke-width="2" d="M12,-8C12,-8 365.12,-8 365.12,-8 371.12,-8 377.12,-14 377.12,-20 377.12,-20 377.12,-2010 377.12,-2010 377.12,-2016 371.12,-2022 365.12,-2022 365.12,-2022 12,-2022 12,-2022 6,-2022 0,-2016 0,-2010 0,-2010 0,-20 0,-20 0,-14 6,-8 12,-8"/>
<text xml:space="preserve" text-anchor="middle" x="188.56" y="-2009.45" font-family="Helvetica,sans-Serif" font-weight="bold" font-size="9.00">app</text>
</g>
<g id="clust2" class="cluster">
<title>cluster_app/(password&#45;protected)</title>
<path fill="#ffffff" stroke="black" stroke-width="2" d="M20,-16C20,-16 357.12,-16 357.12,-16 363.12,-16 369.12,-22 369.12,-28 369.12,-28 369.12,-1893 369.12,-1893 369.12,-1899 363.12,-1905 357.12,-1905 357.12,-1905 20,-1905 20,-1905 14,-1905 8,-1899 8,-1893 8,-1893 8,-28 8,-28 8,-22 14,-16 20,-16"/>
<text xml:space="preserve" text-anchor="middle" x="188.56" y="-1892.45" font-family="Helvetica,sans-Serif" font-weight="bold" font-size="9.00">(password&#45;protected)</text>
</g>
<g id="clust3" class="cluster">
<title>cluster_app/(password&#45;protected)/a</title>
<path fill="#ffffff" stroke="black" stroke-width="2" d="M52.25,-24C52.25,-24 99.25,-24 99.25,-24 105.25,-24 111.25,-30 111.25,-36 111.25,-36 111.25,-67 111.25,-67 111.25,-73 105.25,-79 99.25,-79 99.25,-79 52.25,-79 52.25,-79 46.25,-79 40.25,-73 40.25,-67 40.25,-67 40.25,-36 40.25,-36 40.25,-30 46.25,-24 52.25,-24"/>
<text xml:space="preserve" text-anchor="middle" x="75.75" y="-66.45" font-family="Helvetica,sans-Serif" font-weight="bold" font-size="9.00">a</text>
</g>
<g id="clust4" class="cluster">
<title>cluster_app/(password&#45;protected)/about</title>
<path fill="#ffffff" stroke="black" stroke-width="2" d="M52.25,-87C52.25,-87 99.25,-87 99.25,-87 105.25,-87 111.25,-93 111.25,-99 111.25,-99 111.25,-130 111.25,-130 111.25,-136 105.25,-142 99.25,-142 99.25,-142 52.25,-142 52.25,-142 46.25,-142 40.25,-136 40.25,-130 40.25,-130 40.25,-99 40.25,-99 40.25,-93 46.25,-87 52.25,-87"/>
<text xml:space="preserve" text-anchor="middle" x="75.75" y="-129.45" font-family="Helvetica,sans-Serif" font-weight="bold" font-size="9.00">about</text>
</g>
<g id="clust5" class="cluster">
<title>cluster_app/(password&#45;protected)/access</title>
<path fill="#ffffff" stroke="black" stroke-width="2" d="M52.25,-150C52.25,-150 99.25,-150 99.25,-150 105.25,-150 111.25,-156 111.25,-162 111.25,-162 111.25,-193 111.25,-193 111.25,-199 105.25,-205 99.25,-205 99.25,-205 52.25,-205 52.25,-205 46.25,-205 40.25,-199 40.25,-193 40.25,-193 40.25,-162 40.25,-162 40.25,-156 46.25,-150 52.25,-150"/>
<text xml:space="preserve" text-anchor="middle" x="75.75" y="-192.45" font-family="Helvetica,sans-Serif" font-weight="bold" font-size="9.00">access</text>
</g>
<g id="clust6" class="cluster">
<title>cluster_app/(password&#45;protected)/api</title>
<path fill="#ffffff" stroke="black" stroke-width="2" d="M28,-213C28,-213 124.5,-213 124.5,-213 130.5,-213 136.5,-219 136.5,-225 136.5,-225 136.5,-858 136.5,-858 136.5,-864 130.5,-870 124.5,-870 124.5,-870 28,-870 28,-870 22,-870 16,-864 16,-858 16,-858 16,-225 16,-225 16,-219 22,-213 28,-213"/>
<text xml:space="preserve" text-anchor="middle" x="76.25" y="-857.45" font-family="Helvetica,sans-Serif" font-weight="bold" font-size="9.00">api</text>
</g>
<g id="clust7" class="cluster">
<title>cluster_app/(password&#45;protected)/api/chat</title>
<path fill="#ffffff" stroke="black" stroke-width="2" d="M52.75,-221C52.75,-221 98.75,-221 98.75,-221 104.75,-221 110.75,-227 110.75,-233 110.75,-233 110.75,-264 110.75,-264 110.75,-270 104.75,-276 98.75,-276 98.75,-276 52.75,-276 52.75,-276 46.75,-276 40.75,-270 40.75,-264 40.75,-264 40.75,-233 40.75,-233 40.75,-227 46.75,-221 52.75,-221"/>
<text xml:space="preserve" text-anchor="middle" x="75.75" y="-263.45" font-family="Helvetica,sans-Serif" font-weight="bold" font-size="9.00">chat</text>
</g>
<g id="clust8" class="cluster">
<title>cluster_app/(password&#45;protected)/api/cron&#45;password</title>
<path fill="#ffffff" stroke="black" stroke-width="2" d="M42.75,-284C42.75,-284 109.75,-284 109.75,-284 115.75,-284 121.75,-290 121.75,-296 121.75,-296 121.75,-327 121.75,-327 121.75,-333 115.75,-339 109.75,-339 109.75,-339 42.75,-339 42.75,-339 36.75,-339 30.75,-333 30.75,-327 30.75,-327 30.75,-296 30.75,-296 30.75,-290 36.75,-284 42.75,-284"/>
<text xml:space="preserve" text-anchor="middle" x="76.25" y="-326.45" font-family="Helvetica,sans-Serif" font-weight="bold" font-size="9.00">cron&#45;password</text>
</g>
<g id="clust9" class="cluster">
<title>cluster_app/(password&#45;protected)/api/cron</title>
<path fill="#ffffff" stroke="black" stroke-width="2" d="M52.75,-347C52.75,-347 98.75,-347 98.75,-347 104.75,-347 110.75,-353 110.75,-359 110.75,-359 110.75,-390 110.75,-390 110.75,-396 104.75,-402 98.75,-402 98.75,-402 52.75,-402 52.75,-402 46.75,-402 40.75,-396 40.75,-390 40.75,-390 40.75,-359 40.75,-359 40.75,-353 46.75,-347 52.75,-347"/>
<text xml:space="preserve" text-anchor="middle" x="75.75" y="-389.45" font-family="Helvetica,sans-Serif" font-weight="bold" font-size="9.00">cron</text>
</g>
<g id="clust10" class="cluster">
<title>cluster_app/(password&#45;protected)/api/delete&#45;user</title>
<path fill="#ffffff" stroke="black" stroke-width="2" d="M51,-410C51,-410 101.5,-410 101.5,-410 107.5,-410 113.5,-416 113.5,-422 113.5,-422 113.5,-453 113.5,-453 113.5,-459 107.5,-465 101.5,-465 101.5,-465 51,-465 51,-465 45,-465 39,-459 39,-453 39,-453 39,-422 39,-422 39,-416 45,-410 51,-410"/>
<text xml:space="preserve" text-anchor="middle" x="76.25" y="-452.45" font-family="Helvetica,sans-Serif" font-weight="bold" font-size="9.00">delete&#45;user</text>
</g>
<g id="clust11" class="cluster">
<title>cluster_app/(password&#45;protected)/api/get&#45;passwords</title>
<path fill="#ffffff" stroke="black" stroke-width="2" d="M42.75,-473C42.75,-473 109.75,-473 109.75,-473 115.75,-473 121.75,-479 121.75,-485 121.75,-485 121.75,-516 121.75,-516 121.75,-522 115.75,-528 109.75,-528 109.75,-528 42.75,-528 42.75,-528 36.75,-528 30.75,-522 30.75,-516 30.75,-516 30.75,-485 30.75,-485 30.75,-479 36.75,-473 42.75,-473"/>
<text xml:space="preserve" text-anchor="middle" x="76.25" y="-515.45" font-family="Helvetica,sans-Serif" font-weight="bold" font-size="9.00">get&#45;passwords</text>
</g>
<g id="clust12" class="cluster">
<title>cluster_app/(password&#45;protected)/api/is&#45;booster</title>
<path fill="#ffffff" stroke="black" stroke-width="2" d="M52.75,-536C52.75,-536 98.75,-536 98.75,-536 104.75,-536 110.75,-542 110.75,-548 110.75,-548 110.75,-579 110.75,-579 110.75,-585 104.75,-591 98.75,-591 98.75,-591 52.75,-591 52.75,-591 46.75,-591 40.75,-585 40.75,-579 40.75,-579 40.75,-548 40.75,-548 40.75,-542 46.75,-536 52.75,-536"/>
<text xml:space="preserve" text-anchor="middle" x="75.75" y="-578.45" font-family="Helvetica,sans-Serif" font-weight="bold" font-size="9.00">is&#45;booster</text>
</g>
<g id="clust13" class="cluster">
<title>cluster_app/(password&#45;protected)/api/private&#45;profile</title>
<path fill="#ffffff" stroke="black" stroke-width="2" d="M43.5,-599C43.5,-599 109,-599 109,-599 115,-599 121,-605 121,-611 121,-611 121,-642 121,-642 121,-648 115,-654 109,-654 109,-654 43.5,-654 43.5,-654 37.5,-654 31.5,-648 31.5,-642 31.5,-642 31.5,-611 31.5,-611 31.5,-605 37.5,-599 43.5,-599"/>
<text xml:space="preserve" text-anchor="middle" x="76.25" y="-641.45" font-family="Helvetica,sans-Serif" font-weight="bold" font-size="9.00">private&#45;profile</text>
</g>
<g id="clust14" class="cluster">
<title>cluster_app/(password&#45;protected)/api/set&#45;anti&#45;close</title>
<path fill="#ffffff" stroke="black" stroke-width="2" d="M45.75,-662C45.75,-662 106.75,-662 106.75,-662 112.75,-662 118.75,-668 118.75,-674 118.75,-674 118.75,-705 118.75,-705 118.75,-711 112.75,-717 106.75,-717 106.75,-717 45.75,-717 45.75,-717 39.75,-717 33.75,-711 33.75,-705 33.75,-705 33.75,-674 33.75,-674 33.75,-668 39.75,-662 45.75,-662"/>
<text xml:space="preserve" text-anchor="middle" x="76.25" y="-704.45" font-family="Helvetica,sans-Serif" font-weight="bold" font-size="9.00">set&#45;anti&#45;close</text>
</g>
<g id="clust15" class="cluster">
<title>cluster_app/(password&#45;protected)/api/submit&#45;password</title>
<path fill="#ffffff" stroke="black" stroke-width="2" d="M36,-725C36,-725 116.5,-725 116.5,-725 122.5,-725 128.5,-731 128.5,-737 128.5,-737 128.5,-768 128.5,-768 128.5,-774 122.5,-780 116.5,-780 116.5,-780 36,-780 36,-780 30,-780 24,-774 24,-768 24,-768 24,-737 24,-737 24,-731 30,-725 36,-725"/>
<text xml:space="preserve" text-anchor="middle" x="76.25" y="-767.45" font-family="Helvetica,sans-Serif" font-weight="bold" font-size="9.00">submit&#45;password</text>
</g>
<g id="clust16" class="cluster">
<title>cluster_app/(password&#45;protected)/api/verify&#45;googlebot</title>
<path fill="#ffffff" stroke="black" stroke-width="2" d="M37.88,-788C37.88,-788 114.62,-788 114.62,-788 120.62,-788 126.62,-794 126.62,-800 126.62,-800 126.62,-831 126.62,-831 126.62,-837 120.62,-843 114.62,-843 114.62,-843 37.88,-843 37.88,-843 31.88,-843 25.88,-837 25.88,-831 25.88,-831 25.88,-800 25.88,-800 25.88,-794 31.88,-788 37.88,-788"/>
<text xml:space="preserve" text-anchor="middle" x="76.25" y="-830.45" font-family="Helvetica,sans-Serif" font-weight="bold" font-size="9.00">verify&#45;googlebot</text>
</g>
<g id="clust17" class="cluster">
<title>cluster_app/(password&#45;protected)/app</title>
<path fill="#ffffff" stroke="black" stroke-width="2" d="M52.25,-878C52.25,-878 99.25,-878 99.25,-878 105.25,-878 111.25,-884 111.25,-890 111.25,-890 111.25,-921 111.25,-921 111.25,-927 105.25,-933 99.25,-933 99.25,-933 52.25,-933 52.25,-933 46.25,-933 40.25,-927 40.25,-921 40.25,-921 40.25,-890 40.25,-890 40.25,-884 46.25,-878 52.25,-878"/>
<text xml:space="preserve" text-anchor="middle" x="75.75" y="-920.45" font-family="Helvetica,sans-Serif" font-weight="bold" font-size="9.00">app</text>
</g>
<g id="clust18" class="cluster">
<title>cluster_app/(password&#45;protected)/auth</title>
<path fill="#ffffff" stroke="black" stroke-width="2" d="M44.75,-941C44.75,-941 106.75,-941 106.75,-941 112.75,-941 118.75,-947 118.75,-953 118.75,-953 118.75,-1019 118.75,-1019 118.75,-1025 112.75,-1031 106.75,-1031 106.75,-1031 44.75,-1031 44.75,-1031 38.75,-1031 32.75,-1025 32.75,-1019 32.75,-1019 32.75,-953 32.75,-953 32.75,-947 38.75,-941 44.75,-941"/>
<text xml:space="preserve" text-anchor="middle" x="75.75" y="-1018.45" font-family="Helvetica,sans-Serif" font-weight="bold" font-size="9.00">auth</text>
</g>
<g id="clust19" class="cluster">
<title>cluster_app/(password&#45;protected)/auth/confirm</title>
<path fill="#ffffff" stroke="black" stroke-width="2" d="M52.75,-949C52.75,-949 98.75,-949 98.75,-949 104.75,-949 110.75,-955 110.75,-961 110.75,-961 110.75,-992 110.75,-992 110.75,-998 104.75,-1004 98.75,-1004 98.75,-1004 52.75,-1004 52.75,-1004 46.75,-1004 40.75,-998 40.75,-992 40.75,-992 40.75,-961 40.75,-961 40.75,-955 46.75,-949 52.75,-949"/>
<text xml:space="preserve" text-anchor="middle" x="75.75" y="-991.45" font-family="Helvetica,sans-Serif" font-weight="bold" font-size="9.00">confirm</text>
</g>
<g id="clust20" class="cluster">
<title>cluster_app/(password&#45;protected)/chat</title>
<path fill="#ffffff" stroke="black" stroke-width="2" d="M52.75,-1039C52.75,-1039 98.75,-1039 98.75,-1039 104.75,-1039 110.75,-1045 110.75,-1051 110.75,-1051 110.75,-1082 110.75,-1082 110.75,-1088 104.75,-1094 98.75,-1094 98.75,-1094 52.75,-1094 52.75,-1094 46.75,-1094 40.75,-1088 40.75,-1082 40.75,-1082 40.75,-1051 40.75,-1051 40.75,-1045 46.75,-1039 52.75,-1039"/>
<text xml:space="preserve" text-anchor="middle" x="75.75" y="-1081.45" font-family="Helvetica,sans-Serif" font-weight="bold" font-size="9.00">chat</text>
</g>
<g id="clust21" class="cluster">
<title>cluster_app/(password&#45;protected)/error</title>
<path fill="#ffffff" stroke="black" stroke-width="2" d="M52.25,-1102C52.25,-1102 99.25,-1102 99.25,-1102 105.25,-1102 111.25,-1108 111.25,-1114 111.25,-1114 111.25,-1145 111.25,-1145 111.25,-1151 105.25,-1157 99.25,-1157 99.25,-1157 52.25,-1157 52.25,-1157 46.25,-1157 40.25,-1151 40.25,-1145 40.25,-1145 40.25,-1114 40.25,-1114 40.25,-1108 46.25,-1102 52.25,-1102"/>
<text xml:space="preserve" text-anchor="middle" x="75.75" y="-1144.45" font-family="Helvetica,sans-Serif" font-weight="bold" font-size="9.00">error</text>
</g>
<g id="clust22" class="cluster">
<title>cluster_app/(password&#45;protected)/g</title>
<path fill="#ffffff" stroke="black" stroke-width="2" d="M52.25,-1165C52.25,-1165 99.25,-1165 99.25,-1165 105.25,-1165 111.25,-1171 111.25,-1177 111.25,-1177 111.25,-1208 111.25,-1208 111.25,-1214 105.25,-1220 99.25,-1220 99.25,-1220 52.25,-1220 52.25,-1220 46.25,-1220 40.25,-1214 40.25,-1208 40.25,-1208 40.25,-1177 40.25,-1177 40.25,-1171 46.25,-1165 52.25,-1165"/>
<text xml:space="preserve" text-anchor="middle" x="75.75" y="-1207.45" font-family="Helvetica,sans-Serif" font-weight="bold" font-size="9.00">g</text>
</g>
<g id="clust23" class="cluster">
<title>cluster_app/(password&#45;protected)/home</title>
<path fill="#ffffff" stroke="black" stroke-width="2" d="M52.25,-1228C52.25,-1228 99.25,-1228 99.25,-1228 105.25,-1228 111.25,-1234 111.25,-1240 111.25,-1240 111.25,-1271 111.25,-1271 111.25,-1277 105.25,-1283 99.25,-1283 99.25,-1283 52.25,-1283 52.25,-1283 46.25,-1283 40.25,-1277 40.25,-1271 40.25,-1271 40.25,-1240 40.25,-1240 40.25,-1234 46.25,-1228 52.25,-1228"/>
<text xml:space="preserve" text-anchor="middle" x="75.75" y="-1270.45" font-family="Helvetica,sans-Serif" font-weight="bold" font-size="9.00">home</text>
</g>
<g id="clust24" class="cluster">
<title>cluster_app/(password&#45;protected)/instant&#45;link</title>
<path fill="#ffffff" stroke="black" stroke-width="2" d="M50.62,-1291C50.62,-1291 101.88,-1291 101.88,-1291 107.88,-1291 113.88,-1297 113.88,-1303 113.88,-1303 113.88,-1334 113.88,-1334 113.88,-1340 107.88,-1346 101.88,-1346 101.88,-1346 50.62,-1346 50.62,-1346 44.62,-1346 38.62,-1340 38.62,-1334 38.62,-1334 38.62,-1303 38.62,-1303 38.62,-1297 44.62,-1291 50.62,-1291"/>
<text xml:space="preserve" text-anchor="middle" x="76.25" y="-1333.45" font-family="Helvetica,sans-Serif" font-weight="bold" font-size="9.00">instant&#45;link</text>
</g>
<g id="clust25" class="cluster">
<title>cluster_app/(password&#45;protected)/login</title>
<path fill="#ffffff" stroke="black" stroke-width="2" d="M52.25,-1354C52.25,-1354 349.12,-1354 349.12,-1354 355.12,-1354 361.12,-1360 361.12,-1366 361.12,-1366 361.12,-1397 361.12,-1397 361.12,-1403 355.12,-1409 349.12,-1409 349.12,-1409 52.25,-1409 52.25,-1409 46.25,-1409 40.25,-1403 40.25,-1397 40.25,-1397 40.25,-1366 40.25,-1366 40.25,-1360 46.25,-1354 52.25,-1354"/>
<text xml:space="preserve" text-anchor="middle" x="200.69" y="-1396.45" font-family="Helvetica,sans-Serif" font-weight="bold" font-size="9.00">login</text>
</g>
<g id="clust26" class="cluster">
<title>cluster_app/(password&#45;protected)/not&#45;found</title>
<path fill="#ffffff" stroke="black" stroke-width="2" d="M52.25,-1417C52.25,-1417 99.25,-1417 99.25,-1417 105.25,-1417 111.25,-1423 111.25,-1429 111.25,-1429 111.25,-1460 111.25,-1460 111.25,-1466 105.25,-1472 99.25,-1472 99.25,-1472 52.25,-1472 52.25,-1472 46.25,-1472 40.25,-1466 40.25,-1460 40.25,-1460 40.25,-1429 40.25,-1429 40.25,-1423 46.25,-1417 52.25,-1417"/>
<text xml:space="preserve" text-anchor="middle" x="75.75" y="-1459.45" font-family="Helvetica,sans-Serif" font-weight="bold" font-size="9.00">not&#45;found</text>
</g>
<g id="clust27" class="cluster">
<title>cluster_app/(password&#45;protected)/p</title>
<path fill="#ffffff" stroke="black" stroke-width="2" d="M52.25,-1480C52.25,-1480 99.25,-1480 99.25,-1480 105.25,-1480 111.25,-1486 111.25,-1492 111.25,-1492 111.25,-1523 111.25,-1523 111.25,-1529 105.25,-1535 99.25,-1535 99.25,-1535 52.25,-1535 52.25,-1535 46.25,-1535 40.25,-1529 40.25,-1523 40.25,-1523 40.25,-1492 40.25,-1492 40.25,-1486 46.25,-1480 52.25,-1480"/>
<text xml:space="preserve" text-anchor="middle" x="75.75" y="-1522.45" font-family="Helvetica,sans-Serif" font-weight="bold" font-size="9.00">p</text>
</g>
<g id="clust28" class="cluster">
<title>cluster_app/(password&#45;protected)/pete&#45;ai</title>
<path fill="#ffffff" stroke="black" stroke-width="2" d="M52.25,-1543C52.25,-1543 99.25,-1543 99.25,-1543 105.25,-1543 111.25,-1549 111.25,-1555 111.25,-1555 111.25,-1586 111.25,-1586 111.25,-1592 105.25,-1598 99.25,-1598 99.25,-1598 52.25,-1598 52.25,-1598 46.25,-1598 40.25,-1592 40.25,-1586 40.25,-1586 40.25,-1555 40.25,-1555 40.25,-1549 46.25,-1543 52.25,-1543"/>
<text xml:space="preserve" text-anchor="middle" x="75.75" y="-1585.45" font-family="Helvetica,sans-Serif" font-weight="bold" font-size="9.00">pete&#45;ai</text>
</g>
<g id="clust29" class="cluster">
<title>cluster_app/(password&#45;protected)/play</title>
<path fill="#ffffff" stroke="black" stroke-width="2" d="M52.25,-1606C52.25,-1606 99.25,-1606 99.25,-1606 105.25,-1606 111.25,-1612 111.25,-1618 111.25,-1618 111.25,-1649 111.25,-1649 111.25,-1655 105.25,-1661 99.25,-1661 99.25,-1661 52.25,-1661 52.25,-1661 46.25,-1661 40.25,-1655 40.25,-1649 40.25,-1649 40.25,-1618 40.25,-1618 40.25,-1612 46.25,-1606 52.25,-1606"/>
<text xml:space="preserve" text-anchor="middle" x="75.75" y="-1648.45" font-family="Helvetica,sans-Serif" font-weight="bold" font-size="9.00">play</text>
</g>
<g id="clust30" class="cluster">
<title>cluster_app/(password&#45;protected)/pr</title>
<path fill="#ffffff" stroke="black" stroke-width="2" d="M52.25,-1669C52.25,-1669 99.25,-1669 99.25,-1669 105.25,-1669 111.25,-1675 111.25,-1681 111.25,-1681 111.25,-1712 111.25,-1712 111.25,-1718 105.25,-1724 99.25,-1724 99.25,-1724 52.25,-1724 52.25,-1724 46.25,-1724 40.25,-1718 40.25,-1712 40.25,-1712 40.25,-1681 40.25,-1681 40.25,-1675 46.25,-1669 52.25,-1669"/>
<text xml:space="preserve" text-anchor="middle" x="75.75" y="-1711.45" font-family="Helvetica,sans-Serif" font-weight="bold" font-size="9.00">pr</text>
</g>
<g id="clust31" class="cluster">
<title>cluster_app/(password&#45;protected)/pzm</title>
<path fill="#ffffff" stroke="black" stroke-width="2" d="M52.25,-1732C52.25,-1732 99.25,-1732 99.25,-1732 105.25,-1732 111.25,-1738 111.25,-1744 111.25,-1744 111.25,-1775 111.25,-1775 111.25,-1781 105.25,-1787 99.25,-1787 99.25,-1787 52.25,-1787 52.25,-1787 46.25,-1787 40.25,-1781 40.25,-1775 40.25,-1775 40.25,-1744 40.25,-1744 40.25,-1738 46.25,-1732 52.25,-1732"/>
<text xml:space="preserve" text-anchor="middle" x="75.75" y="-1774.45" font-family="Helvetica,sans-Serif" font-weight="bold" font-size="9.00">pzm</text>
</g>
<g id="clust32" class="cluster">
<title>cluster_app/(password&#45;protected)/settings</title>
<path fill="#ffffff" stroke="black" stroke-width="2" d="M52.25,-1795C52.25,-1795 99.25,-1795 99.25,-1795 105.25,-1795 111.25,-1801 111.25,-1807 111.25,-1807 111.25,-1838 111.25,-1838 111.25,-1844 105.25,-1850 99.25,-1850 99.25,-1850 52.25,-1850 52.25,-1850 46.25,-1850 40.25,-1844 40.25,-1838 40.25,-1838 40.25,-1807 40.25,-1807 40.25,-1801 46.25,-1795 52.25,-1795"/>
<text xml:space="preserve" text-anchor="middle" x="75.75" y="-1837.45" font-family="Helvetica,sans-Serif" font-weight="bold" font-size="9.00">settings</text>
</g>
<!-- app/(password&#45;protected)/a/page.tsx -->
<g id="node1" class="node">
<title>app/(password&#45;protected)/a/page.tsx</title>
<g id="a_node1"><a xlink:href="app/(password-protected)/a/page.tsx" xlink:title="no&#45;orphans">
<path fill="#ccffcc" stroke="orange" d="M96.83,-51.62C96.83,-51.62 54.67,-51.62 54.67,-51.62 51.46,-51.62 48.25,-48.42 48.25,-45.21 48.25,-45.21 48.25,-38.79 48.25,-38.79 48.25,-35.58 51.46,-32.38 54.67,-32.38 54.67,-32.38 96.83,-32.38 96.83,-32.38 100.04,-32.38 103.25,-35.58 103.25,-38.79 103.25,-38.79 103.25,-45.21 103.25,-45.21 103.25,-48.42 100.04,-51.62 96.83,-51.62"/>
<text xml:space="preserve" text-anchor="start" x="56.25" y="-39.08" font-family="Helvetica,sans-Serif" font-size="9.00" fill="orange">page.tsx</text>
</a>
</g>
</g>
<!-- app/(password&#45;protected)/about/page.tsx -->
<g id="node2" class="node">
<title>app/(password&#45;protected)/about/page.tsx</title>
<g id="a_node2"><a xlink:href="app/(password-protected)/about/page.tsx" xlink:title="no&#45;orphans">
<path fill="#ccffcc" stroke="orange" d="M96.83,-114.62C96.83,-114.62 54.67,-114.62 54.67,-114.62 51.46,-114.62 48.25,-111.42 48.25,-108.21 48.25,-108.21 48.25,-101.79 48.25,-101.79 48.25,-98.58 51.46,-95.38 54.67,-95.38 54.67,-95.38 96.83,-95.38 96.83,-95.38 100.04,-95.38 103.25,-98.58 103.25,-101.79 103.25,-101.79 103.25,-108.21 103.25,-108.21 103.25,-111.42 100.04,-114.62 96.83,-114.62"/>
<text xml:space="preserve" text-anchor="start" x="56.25" y="-102.08" font-family="Helvetica,sans-Serif" font-size="9.00" fill="orange">page.tsx</text>
</a>
</g>
</g>
<!-- app/(password&#45;protected)/access/page.tsx -->
<g id="node3" class="node">
<title>app/(password&#45;protected)/access/page.tsx</title>
<g id="a_node3"><a xlink:href="app/(password-protected)/access/page.tsx" xlink:title="no&#45;orphans">
<path fill="#ccffcc" stroke="orange" d="M96.83,-177.62C96.83,-177.62 54.67,-177.62 54.67,-177.62 51.46,-177.62 48.25,-174.42 48.25,-171.21 48.25,-171.21 48.25,-164.79 48.25,-164.79 48.25,-161.58 51.46,-158.38 54.67,-158.38 54.67,-158.38 96.83,-158.38 96.83,-158.38 100.04,-158.38 103.25,-161.58 103.25,-164.79 103.25,-164.79 103.25,-171.21 103.25,-171.21 103.25,-174.42 100.04,-177.62 96.83,-177.62"/>
<text xml:space="preserve" text-anchor="start" x="56.25" y="-165.07" font-family="Helvetica,sans-Serif" font-size="9.00" fill="orange">page.tsx</text>
</a>
</g>
</g>
<!-- app/(password&#45;protected)/api/chat/route.ts -->
<g id="node4" class="node">
<title>app/(password&#45;protected)/api/chat/route.ts</title>
<g id="a_node4"><a xlink:href="app/(password-protected)/api/chat/route.ts" xlink:title="no&#45;orphans">
<path fill="#ccffcc" stroke="orange" d="M96.33,-248.62C96.33,-248.62 55.17,-248.62 55.17,-248.62 51.96,-248.62 48.75,-245.42 48.75,-242.21 48.75,-242.21 48.75,-235.79 48.75,-235.79 48.75,-232.58 51.96,-229.38 55.17,-229.38 55.17,-229.38 96.33,-229.38 96.33,-229.38 99.54,-229.38 102.75,-232.58 102.75,-235.79 102.75,-235.79 102.75,-242.21 102.75,-242.21 102.75,-245.42 99.54,-248.62 96.33,-248.62"/>
<text xml:space="preserve" text-anchor="start" x="58.12" y="-236.07" font-family="Helvetica,sans-Serif" font-size="9.00" fill="orange">route.ts</text>
</a>
</g>
</g>
<!-- app/(password&#45;protected)/api/cron&#45;password/route.ts -->
<g id="node5" class="node">
<title>app/(password&#45;protected)/api/cron&#45;password/route.ts</title>
<g id="a_node5"><a xlink:href="app/(password-protected)/api/cron-password/route.ts" xlink:title="no&#45;orphans">
<path fill="#ccffcc" stroke="orange" d="M96.33,-311.62C96.33,-311.62 55.17,-311.62 55.17,-311.62 51.96,-311.62 48.75,-308.42 48.75,-305.21 48.75,-305.21 48.75,-298.79 48.75,-298.79 48.75,-295.58 51.96,-292.38 55.17,-292.38 55.17,-292.38 96.33,-292.38 96.33,-292.38 99.54,-292.38 102.75,-295.58 102.75,-298.79 102.75,-298.79 102.75,-305.21 102.75,-305.21 102.75,-308.42 99.54,-311.62 96.33,-311.62"/>
<text xml:space="preserve" text-anchor="start" x="58.12" y="-299.07" font-family="Helvetica,sans-Serif" font-size="9.00" fill="orange">route.ts</text>
</a>
</g>
</g>
<!-- app/(password&#45;protected)/api/cron/route.ts -->
<g id="node6" class="node">
<title>app/(password&#45;protected)/api/cron/route.ts</title>
<g id="a_node6"><a xlink:href="app/(password-protected)/api/cron/route.ts" xlink:title="no&#45;orphans">
<path fill="#ccffcc" stroke="orange" d="M96.33,-374.62C96.33,-374.62 55.17,-374.62 55.17,-374.62 51.96,-374.62 48.75,-371.42 48.75,-368.21 48.75,-368.21 48.75,-361.79 48.75,-361.79 48.75,-358.58 51.96,-355.38 55.17,-355.38 55.17,-355.38 96.33,-355.38 96.33,-355.38 99.54,-355.38 102.75,-358.58 102.75,-361.79 102.75,-361.79 102.75,-368.21 102.75,-368.21 102.75,-371.42 99.54,-374.62 96.33,-374.62"/>
<text xml:space="preserve" text-anchor="start" x="58.12" y="-362.07" font-family="Helvetica,sans-Serif" font-size="9.00" fill="orange">route.ts</text>
</a>
</g>
</g>
<!-- app/(password&#45;protected)/api/delete&#45;user/route.ts -->
<g id="node7" class="node">
<title>app/(password&#45;protected)/api/delete&#45;user/route.ts</title>
<g id="a_node7"><a xlink:href="app/(password-protected)/api/delete-user/route.ts" xlink:title="no&#45;orphans">
<path fill="#ccffcc" stroke="orange" d="M96.33,-437.62C96.33,-437.62 55.17,-437.62 55.17,-437.62 51.96,-437.62 48.75,-434.42 48.75,-431.21 48.75,-431.21 48.75,-424.79 48.75,-424.79 48.75,-421.58 51.96,-418.38 55.17,-418.38 55.17,-418.38 96.33,-418.38 96.33,-418.38 99.54,-418.38 102.75,-421.58 102.75,-424.79 102.75,-424.79 102.75,-431.21 102.75,-431.21 102.75,-434.42 99.54,-437.62 96.33,-437.62"/>
<text xml:space="preserve" text-anchor="start" x="58.12" y="-425.07" font-family="Helvetica,sans-Serif" font-size="9.00" fill="orange">route.ts</text>
</a>
</g>
</g>
<!-- app/(password&#45;protected)/api/get&#45;passwords/route.ts -->
<g id="node8" class="node">
<title>app/(password&#45;protected)/api/get&#45;passwords/route.ts</title>
<g id="a_node8"><a xlink:href="app/(password-protected)/api/get-passwords/route.ts" xlink:title="no&#45;orphans">
<path fill="#ccffcc" stroke="orange" d="M96.33,-500.62C96.33,-500.62 55.17,-500.62 55.17,-500.62 51.96,-500.62 48.75,-497.42 48.75,-494.21 48.75,-494.21 48.75,-487.79 48.75,-487.79 48.75,-484.58 51.96,-481.38 55.17,-481.38 55.17,-481.38 96.33,-481.38 96.33,-481.38 99.54,-481.38 102.75,-484.58 102.75,-487.79 102.75,-487.79 102.75,-494.21 102.75,-494.21 102.75,-497.42 99.54,-500.62 96.33,-500.62"/>
<text xml:space="preserve" text-anchor="start" x="58.12" y="-488.07" font-family="Helvetica,sans-Serif" font-size="9.00" fill="orange">route.ts</text>
</a>
</g>
</g>
<!-- app/(password&#45;protected)/api/is&#45;booster/route.ts -->
<g id="node9" class="node">
<title>app/(password&#45;protected)/api/is&#45;booster/route.ts</title>
<g id="a_node9"><a xlink:href="app/(password-protected)/api/is-booster/route.ts" xlink:title="no&#45;orphans">
<path fill="#ccffcc" stroke="orange" d="M96.33,-563.62C96.33,-563.62 55.17,-563.62 55.17,-563.62 51.96,-563.62 48.75,-560.42 48.75,-557.21 48.75,-557.21 48.75,-550.79 48.75,-550.79 48.75,-547.58 51.96,-544.38 55.17,-544.38 55.17,-544.38 96.33,-544.38 96.33,-544.38 99.54,-544.38 102.75,-547.58 102.75,-550.79 102.75,-550.79 102.75,-557.21 102.75,-557.21 102.75,-560.42 99.54,-563.62 96.33,-563.62"/>
<text xml:space="preserve" text-anchor="start" x="58.12" y="-551.08" font-family="Helvetica,sans-Serif" font-size="9.00" fill="orange">route.ts</text>
</a>
</g>
</g>
<!-- app/(password&#45;protected)/api/private&#45;profile/route.ts -->
<g id="node10" class="node">
<title>app/(password&#45;protected)/api/private&#45;profile/route.ts</title>
<g id="a_node10"><a xlink:href="app/(password-protected)/api/private-profile/route.ts" xlink:title="no&#45;orphans">
<path fill="#ccffcc" stroke="orange" d="M96.33,-626.62C96.33,-626.62 55.17,-626.62 55.17,-626.62 51.96,-626.62 48.75,-623.42 48.75,-620.21 48.75,-620.21 48.75,-613.79 48.75,-613.79 48.75,-610.58 51.96,-607.38 55.17,-607.38 55.17,-607.38 96.33,-607.38 96.33,-607.38 99.54,-607.38 102.75,-610.58 102.75,-613.79 102.75,-613.79 102.75,-620.21 102.75,-620.21 102.75,-623.42 99.54,-626.62 96.33,-626.62"/>
<text xml:space="preserve" text-anchor="start" x="58.12" y="-614.08" font-family="Helvetica,sans-Serif" font-size="9.00" fill="orange">route.ts</text>
</a>
</g>
</g>
<!-- app/(password&#45;protected)/api/set&#45;anti&#45;close/route.ts -->
<g id="node11" class="node">
<title>app/(password&#45;protected)/api/set&#45;anti&#45;close/route.ts</title>
<g id="a_node11"><a xlink:href="app/(password-protected)/api/set-anti-close/route.ts" xlink:title="no&#45;orphans">
<path fill="#ccffcc" stroke="orange" d="M96.33,-689.62C96.33,-689.62 55.17,-689.62 55.17,-689.62 51.96,-689.62 48.75,-686.42 48.75,-683.21 48.75,-683.21 48.75,-676.79 48.75,-676.79 48.75,-673.58 51.96,-670.38 55.17,-670.38 55.17,-670.38 96.33,-670.38 96.33,-670.38 99.54,-670.38 102.75,-673.58 102.75,-676.79 102.75,-676.79 102.75,-683.21 102.75,-683.21 102.75,-686.42 99.54,-689.62 96.33,-689.62"/>
<text xml:space="preserve" text-anchor="start" x="58.12" y="-677.08" font-family="Helvetica,sans-Serif" font-size="9.00" fill="orange">route.ts</text>
</a>
</g>
</g>
<!-- app/(password&#45;protected)/api/submit&#45;password/route.ts -->
<g id="node12" class="node">
<title>app/(password&#45;protected)/api/submit&#45;password/route.ts</title>
<g id="a_node12"><a xlink:href="app/(password-protected)/api/submit-password/route.ts" xlink:title="no&#45;orphans">
<path fill="#ccffcc" stroke="orange" d="M96.33,-752.62C96.33,-752.62 55.17,-752.62 55.17,-752.62 51.96,-752.62 48.75,-749.42 48.75,-746.21 48.75,-746.21 48.75,-739.79 48.75,-739.79 48.75,-736.58 51.96,-733.38 55.17,-733.38 55.17,-733.38 96.33,-733.38 96.33,-733.38 99.54,-733.38 102.75,-736.58 102.75,-739.79 102.75,-739.79 102.75,-746.21 102.75,-746.21 102.75,-749.42 99.54,-752.62 96.33,-752.62"/>
<text xml:space="preserve" text-anchor="start" x="58.12" y="-740.08" font-family="Helvetica,sans-Serif" font-size="9.00" fill="orange">route.ts</text>
</a>
</g>
</g>
<!-- app/(password&#45;protected)/api/verify&#45;googlebot/route.ts -->
<g id="node13" class="node">
<title>app/(password&#45;protected)/api/verify&#45;googlebot/route.ts</title>
<g id="a_node13"><a xlink:href="app/(password-protected)/api/verify-googlebot/route.ts" xlink:title="no&#45;orphans">
<path fill="#ccffcc" stroke="orange" d="M96.33,-815.62C96.33,-815.62 55.17,-815.62 55.17,-815.62 51.96,-815.62 48.75,-812.42 48.75,-809.21 48.75,-809.21 48.75,-802.79 48.75,-802.79 48.75,-799.58 51.96,-796.38 55.17,-796.38 55.17,-796.38 96.33,-796.38 96.33,-796.38 99.54,-796.38 102.75,-799.58 102.75,-802.79 102.75,-802.79 102.75,-809.21 102.75,-809.21 102.75,-812.42 99.54,-815.62 96.33,-815.62"/>
<text xml:space="preserve" text-anchor="start" x="58.12" y="-803.08" font-family="Helvetica,sans-Serif" font-size="9.00" fill="orange">route.ts</text>
</a>
</g>
</g>
<!-- app/(password&#45;protected)/app/page.tsx -->
<g id="node14" class="node">
<title>app/(password&#45;protected)/app/page.tsx</title>
<g id="a_node14"><a xlink:href="app/(password-protected)/app/page.tsx" xlink:title="no&#45;orphans">
<path fill="#ccffcc" stroke="orange" d="M96.83,-905.62C96.83,-905.62 54.67,-905.62 54.67,-905.62 51.46,-905.62 48.25,-902.42 48.25,-899.21 48.25,-899.21 48.25,-892.79 48.25,-892.79 48.25,-889.58 51.46,-886.38 54.67,-886.38 54.67,-886.38 96.83,-886.38 96.83,-886.38 100.04,-886.38 103.25,-889.58 103.25,-892.79 103.25,-892.79 103.25,-899.21 103.25,-899.21 103.25,-902.42 100.04,-905.62 96.83,-905.62"/>
<text xml:space="preserve" text-anchor="start" x="56.25" y="-893.08" font-family="Helvetica,sans-Serif" font-size="9.00" fill="orange">page.tsx</text>
</a>
</g>
</g>
<!-- app/(password&#45;protected)/auth/confirm/route.ts -->
<g id="node15" class="node">
<title>app/(password&#45;protected)/auth/confirm/route.ts</title>
<g id="a_node15"><a xlink:href="app/(password-protected)/auth/confirm/route.ts" xlink:title="no&#45;orphans">
<path fill="#ccffcc" stroke="orange" d="M96.33,-976.62C96.33,-976.62 55.17,-976.62 55.17,-976.62 51.96,-976.62 48.75,-973.42 48.75,-970.21 48.75,-970.21 48.75,-963.79 48.75,-963.79 48.75,-960.58 51.96,-957.38 55.17,-957.38 55.17,-957.38 96.33,-957.38 96.33,-957.38 99.54,-957.38 102.75,-960.58 102.75,-963.79 102.75,-963.79 102.75,-970.21 102.75,-970.21 102.75,-973.42 99.54,-976.62 96.33,-976.62"/>
<text xml:space="preserve" text-anchor="start" x="58.12" y="-964.08" font-family="Helvetica,sans-Serif" font-size="9.00" fill="orange">route.ts</text>
</a>
</g>
</g>
<!-- app/(password&#45;protected)/chat/route.ts -->
<g id="node16" class="node">
<title>app/(password&#45;protected)/chat/route.ts</title>
<g id="a_node16"><a xlink:href="app/(password-protected)/chat/route.ts" xlink:title="no&#45;orphans">
<path fill="#ccffcc" stroke="orange" d="M96.33,-1066.62C96.33,-1066.62 55.17,-1066.62 55.17,-1066.62 51.96,-1066.62 48.75,-1063.42 48.75,-1060.21 48.75,-1060.21 48.75,-1053.79 48.75,-1053.79 48.75,-1050.58 51.96,-1047.38 55.17,-1047.38 55.17,-1047.38 96.33,-1047.38 96.33,-1047.38 99.54,-1047.38 102.75,-1050.58 102.75,-1053.79 102.75,-1053.79 102.75,-1060.21 102.75,-1060.21 102.75,-1063.42 99.54,-1066.62 96.33,-1066.62"/>
<text xml:space="preserve" text-anchor="start" x="58.12" y="-1054.08" font-family="Helvetica,sans-Serif" font-size="9.00" fill="orange">route.ts</text>
</a>
</g>
</g>
<!-- app/(password&#45;protected)/error/page.tsx -->
<g id="node17" class="node">
<title>app/(password&#45;protected)/error/page.tsx</title>
<g id="a_node17"><a xlink:href="app/(password-protected)/error/page.tsx" xlink:title="no&#45;orphans">
<path fill="#ccffcc" stroke="orange" d="M96.83,-1129.62C96.83,-1129.62 54.67,-1129.62 54.67,-1129.62 51.46,-1129.62 48.25,-1126.42 48.25,-1123.21 48.25,-1123.21 48.25,-1116.79 48.25,-1116.79 48.25,-1113.58 51.46,-1110.38 54.67,-1110.38 54.67,-1110.38 96.83,-1110.38 96.83,-1110.38 100.04,-1110.38 103.25,-1113.58 103.25,-1116.79 103.25,-1116.79 103.25,-1123.21 103.25,-1123.21 103.25,-1126.42 100.04,-1129.62 96.83,-1129.62"/>
<text xml:space="preserve" text-anchor="start" x="56.25" y="-1117.08" font-family="Helvetica,sans-Serif" font-size="9.00" fill="orange">page.tsx</text>
</a>
</g>
</g>
<!-- app/(password&#45;protected)/g/page.tsx -->
<g id="node18" class="node">
<title>app/(password&#45;protected)/g/page.tsx</title>
<g id="a_node18"><a xlink:href="app/(password-protected)/g/page.tsx" xlink:title="no&#45;orphans">
<path fill="#ccffcc" stroke="orange" d="M96.83,-1192.62C96.83,-1192.62 54.67,-1192.62 54.67,-1192.62 51.46,-1192.62 48.25,-1189.42 48.25,-1186.21 48.25,-1186.21 48.25,-1179.79 48.25,-1179.79 48.25,-1176.58 51.46,-1173.38 54.67,-1173.38 54.67,-1173.38 96.83,-1173.38 96.83,-1173.38 100.04,-1173.38 103.25,-1176.58 103.25,-1179.79 103.25,-1179.79 103.25,-1186.21 103.25,-1186.21 103.25,-1189.42 100.04,-1192.62 96.83,-1192.62"/>
<text xml:space="preserve" text-anchor="start" x="56.25" y="-1180.08" font-family="Helvetica,sans-Serif" font-size="9.00" fill="orange">page.tsx</text>
</a>
</g>
</g>
<!-- app/(password&#45;protected)/home/page.tsx -->
<g id="node19" class="node">
<title>app/(password&#45;protected)/home/page.tsx</title>
<g id="a_node19"><a xlink:href="app/(password-protected)/home/page.tsx" xlink:title="no&#45;orphans">
<path fill="#ccffcc" stroke="orange" d="M96.83,-1255.62C96.83,-1255.62 54.67,-1255.62 54.67,-1255.62 51.46,-1255.62 48.25,-1252.42 48.25,-1249.21 48.25,-1249.21 48.25,-1242.79 48.25,-1242.79 48.25,-1239.58 51.46,-1236.38 54.67,-1236.38 54.67,-1236.38 96.83,-1236.38 96.83,-1236.38 100.04,-1236.38 103.25,-1239.58 103.25,-1242.79 103.25,-1242.79 103.25,-1249.21 103.25,-1249.21 103.25,-1252.42 100.04,-1255.62 96.83,-1255.62"/>
<text xml:space="preserve" text-anchor="start" x="56.25" y="-1243.08" font-family="Helvetica,sans-Serif" font-size="9.00" fill="orange">page.tsx</text>
</a>
</g>
</g>
<!-- app/(password&#45;protected)/instant&#45;link/page.tsx -->
<g id="node20" class="node">
<title>app/(password&#45;protected)/instant&#45;link/page.tsx</title>
<g id="a_node20"><a xlink:href="app/(password-protected)/instant-link/page.tsx" xlink:title="no&#45;orphans">
<path fill="#ccffcc" stroke="orange" d="M96.83,-1318.62C96.83,-1318.62 54.67,-1318.62 54.67,-1318.62 51.46,-1318.62 48.25,-1315.42 48.25,-1312.21 48.25,-1312.21 48.25,-1305.79 48.25,-1305.79 48.25,-1302.58 51.46,-1299.38 54.67,-1299.38 54.67,-1299.38 96.83,-1299.38 96.83,-1299.38 100.04,-1299.38 103.25,-1302.58 103.25,-1305.79 103.25,-1305.79 103.25,-1312.21 103.25,-1312.21 103.25,-1315.42 100.04,-1318.62 96.83,-1318.62"/>
<text xml:space="preserve" text-anchor="start" x="56.25" y="-1306.08" font-family="Helvetica,sans-Serif" font-size="9.00" fill="orange">page.tsx</text>
</a>
</g>
</g>
<!-- app/(password&#45;protected)/layout.tsx -->
<g id="node21" class="node">
<title>app/(password&#45;protected)/layout.tsx</title>
<g id="a_node21"><a xlink:href="app/(password-protected)/layout.tsx" xlink:title="layout.tsx">
<path fill="#bbfeff" stroke="black" d="M99.46,-1877.62C99.46,-1877.62 52.04,-1877.62 52.04,-1877.62 48.83,-1877.62 45.62,-1874.42 45.62,-1871.21 45.62,-1871.21 45.62,-1864.79 45.62,-1864.79 45.62,-1861.58 48.83,-1858.38 52.04,-1858.38 52.04,-1858.38 99.46,-1858.38 99.46,-1858.38 102.67,-1858.38 105.88,-1861.58 105.88,-1864.79 105.88,-1864.79 105.88,-1871.21 105.88,-1871.21 105.88,-1874.42 102.67,-1877.62 99.46,-1877.62"/>
<text xml:space="preserve" text-anchor="start" x="53.62" y="-1865.08" font-family="Helvetica,sans-Serif" font-size="9.00">layout.tsx</text>
</a>
</g>
</g>
<!-- app/globals.css -->
<g id="node22" class="node">
<title>app/globals.css</title>
<g id="a_node22"><a xlink:href="app/globals.css" xlink:title="globals.css">
<path fill="#ffffcc" stroke="black" d="M349.33,-1932.62C349.33,-1932.62 297.42,-1932.62 297.42,-1932.62 294.21,-1932.62 291,-1929.42 291,-1926.21 291,-1926.21 291,-1919.79 291,-1919.79 291,-1916.58 294.21,-1913.38 297.42,-1913.38 297.42,-1913.38 349.33,-1913.38 349.33,-1913.38 352.54,-1913.38 355.75,-1916.58 355.75,-1919.79 355.75,-1919.79 355.75,-1926.21 355.75,-1926.21 355.75,-1929.42 352.54,-1932.62 349.33,-1932.62"/>
<text xml:space="preserve" text-anchor="start" x="299" y="-1920.08" font-family="Helvetica,sans-Serif" font-size="9.00">globals.css</text>
</a>
</g>
</g>
<!-- app/(password&#45;protected)/layout.tsx&#45;&gt;app/globals.css -->
<g id="edge1" class="edge">
<title>app/(password&#45;protected)/layout.tsx&#45;&gt;app/globals.css</title>
<path fill="none" stroke="#000000" stroke-width="2" stroke-opacity="0.200000" d="M105.89,-1874.53C149.65,-1884.32 232.46,-1902.87 282.01,-1913.96"/>
<polygon fill="#000000" fill-opacity="0.200000" stroke="#000000" stroke-width="2" stroke-opacity="0.200000" points="281.29,-1915.95 287.6,-1915.21 282.21,-1911.85 281.29,-1915.95"/>
</g>
<!-- app/(password&#45;protected)/login/actions.ts -->
<g id="node23" class="node">
<title>app/(password&#45;protected)/login/actions.ts</title>
<g id="a_node23"><a xlink:href="app/(password-protected)/login/actions.ts" xlink:title="actions.ts">
<path fill="#ddfeff" stroke="black" d="M346.71,-1381.62C346.71,-1381.62 300.04,-1381.62 300.04,-1381.62 296.83,-1381.62 293.62,-1378.42 293.62,-1375.21 293.62,-1375.21 293.62,-1368.79 293.62,-1368.79 293.62,-1365.58 296.83,-1362.38 300.04,-1362.38 300.04,-1362.38 346.71,-1362.38 346.71,-1362.38 349.92,-1362.38 353.12,-1365.58 353.12,-1368.79 353.12,-1368.79 353.12,-1375.21 353.12,-1375.21 353.12,-1378.42 349.92,-1381.62 346.71,-1381.62"/>
<text xml:space="preserve" text-anchor="start" x="301.62" y="-1369.08" font-family="Helvetica,sans-Serif" font-size="9.00">actions.ts</text>
</a>
</g>
</g>
<!-- app/(password&#45;protected)/login/page.tsx -->
<g id="node24" class="node">
<title>app/(password&#45;protected)/login/page.tsx</title>
<g id="a_node24"><a xlink:href="app/(password-protected)/login/page.tsx" xlink:title="page.tsx">
<path fill="#bbfeff" stroke="black" d="M96.83,-1381.62C96.83,-1381.62 54.67,-1381.62 54.67,-1381.62 51.46,-1381.62 48.25,-1378.42 48.25,-1375.21 48.25,-1375.21 48.25,-1368.79 48.25,-1368.79 48.25,-1365.58 51.46,-1362.38 54.67,-1362.38 54.67,-1362.38 96.83,-1362.38 96.83,-1362.38 100.04,-1362.38 103.25,-1365.58 103.25,-1368.79 103.25,-1368.79 103.25,-1375.21 103.25,-1375.21 103.25,-1378.42 100.04,-1381.62 96.83,-1381.62"/>
<text xml:space="preserve" text-anchor="start" x="56.25" y="-1369.08" font-family="Helvetica,sans-Serif" font-size="9.00">page.tsx</text>
</a>
</g>
</g>
<!-- app/(password&#45;protected)/login/page.tsx&#45;&gt;app/(password&#45;protected)/login/actions.ts -->
<g id="edge2" class="edge">
<title>app/(password&#45;protected)/login/page.tsx&#45;&gt;app/(password&#45;protected)/login/actions.ts</title>
<path fill="none" stroke="#000000" stroke-width="2" stroke-opacity="0.200000" d="M103.5,-1372C147.28,-1372 234.35,-1372 284.47,-1372"/>
<polygon fill="#000000" fill-opacity="0.200000" stroke="#000000" stroke-width="2" stroke-opacity="0.200000" points="284.35,-1374.1 290.35,-1372 284.35,-1369.9 284.35,-1374.1"/>
</g>
<!-- app/(password&#45;protected)/not&#45;found/page.tsx -->
<g id="node25" class="node">
<title>app/(password&#45;protected)/not&#45;found/page.tsx</title>
<g id="a_node25"><a xlink:href="app/(password-protected)/not-found/page.tsx" xlink:title="no&#45;orphans">
<path fill="#ccffcc" stroke="orange" d="M96.83,-1444.62C96.83,-1444.62 54.67,-1444.62 54.67,-1444.62 51.46,-1444.62 48.25,-1441.42 48.25,-1438.21 48.25,-1438.21 48.25,-1431.79 48.25,-1431.79 48.25,-1428.58 51.46,-1425.38 54.67,-1425.38 54.67,-1425.38 96.83,-1425.38 96.83,-1425.38 100.04,-1425.38 103.25,-1428.58 103.25,-1431.79 103.25,-1431.79 103.25,-1438.21 103.25,-1438.21 103.25,-1441.42 100.04,-1444.62 96.83,-1444.62"/>
<text xml:space="preserve" text-anchor="start" x="56.25" y="-1432.08" font-family="Helvetica,sans-Serif" font-size="9.00" fill="orange">page.tsx</text>
</a>
</g>
</g>
<!-- app/(password&#45;protected)/p/page.tsx -->
<g id="node26" class="node">
<title>app/(password&#45;protected)/p/page.tsx</title>
<g id="a_node26"><a xlink:href="app/(password-protected)/p/page.tsx" xlink:title="no&#45;orphans">
<path fill="#ccffcc" stroke="orange" d="M96.83,-1507.62C96.83,-1507.62 54.67,-1507.62 54.67,-1507.62 51.46,-1507.62 48.25,-1504.42 48.25,-1501.21 48.25,-1501.21 48.25,-1494.79 48.25,-1494.79 48.25,-1491.58 51.46,-1488.38 54.67,-1488.38 54.67,-1488.38 96.83,-1488.38 96.83,-1488.38 100.04,-1488.38 103.25,-1491.58 103.25,-1494.79 103.25,-1494.79 103.25,-1501.21 103.25,-1501.21 103.25,-1504.42 100.04,-1507.62 96.83,-1507.62"/>
<text xml:space="preserve" text-anchor="start" x="56.25" y="-1495.08" font-family="Helvetica,sans-Serif" font-size="9.00" fill="orange">page.tsx</text>
</a>
</g>
</g>
<!-- app/(password&#45;protected)/pete&#45;ai/page.tsx -->
<g id="node27" class="node">
<title>app/(password&#45;protected)/pete&#45;ai/page.tsx</title>
<g id="a_node27"><a xlink:href="app/(password-protected)/pete-ai/page.tsx" xlink:title="no&#45;orphans">
<path fill="#ccffcc" stroke="orange" d="M96.83,-1570.62C96.83,-1570.62 54.67,-1570.62 54.67,-1570.62 51.46,-1570.62 48.25,-1567.42 48.25,-1564.21 48.25,-1564.21 48.25,-1557.79 48.25,-1557.79 48.25,-1554.58 51.46,-1551.38 54.67,-1551.38 54.67,-1551.38 96.83,-1551.38 96.83,-1551.38 100.04,-1551.38 103.25,-1554.58 103.25,-1557.79 103.25,-1557.79 103.25,-1564.21 103.25,-1564.21 103.25,-1567.42 100.04,-1570.62 96.83,-1570.62"/>
<text xml:space="preserve" text-anchor="start" x="56.25" y="-1558.08" font-family="Helvetica,sans-Serif" font-size="9.00" fill="orange">page.tsx</text>
</a>
</g>
</g>
<!-- app/(password&#45;protected)/play/page.tsx -->
<g id="node28" class="node">
<title>app/(password&#45;protected)/play/page.tsx</title>
<g id="a_node28"><a xlink:href="app/(password-protected)/play/page.tsx" xlink:title="no&#45;orphans">
<path fill="#ccffcc" stroke="orange" d="M96.83,-1633.62C96.83,-1633.62 54.67,-1633.62 54.67,-1633.62 51.46,-1633.62 48.25,-1630.42 48.25,-1627.21 48.25,-1627.21 48.25,-1620.79 48.25,-1620.79 48.25,-1617.58 51.46,-1614.38 54.67,-1614.38 54.67,-1614.38 96.83,-1614.38 96.83,-1614.38 100.04,-1614.38 103.25,-1617.58 103.25,-1620.79 103.25,-1620.79 103.25,-1627.21 103.25,-1627.21 103.25,-1630.42 100.04,-1633.62 96.83,-1633.62"/>
<text xml:space="preserve" text-anchor="start" x="56.25" y="-1621.08" font-family="Helvetica,sans-Serif" font-size="9.00" fill="orange">page.tsx</text>
</a>
</g>
</g>
<!-- app/(password&#45;protected)/pr/page.tsx -->
<g id="node29" class="node">
<title>app/(password&#45;protected)/pr/page.tsx</title>
<g id="a_node29"><a xlink:href="app/(password-protected)/pr/page.tsx" xlink:title="no&#45;orphans">
<path fill="#ccffcc" stroke="orange" d="M96.83,-1696.62C96.83,-1696.62 54.67,-1696.62 54.67,-1696.62 51.46,-1696.62 48.25,-1693.42 48.25,-1690.21 48.25,-1690.21 48.25,-1683.79 48.25,-1683.79 48.25,-1680.58 51.46,-1677.38 54.67,-1677.38 54.67,-1677.38 96.83,-1677.38 96.83,-1677.38 100.04,-1677.38 103.25,-1680.58 103.25,-1683.79 103.25,-1683.79 103.25,-1690.21 103.25,-1690.21 103.25,-1693.42 100.04,-1696.62 96.83,-1696.62"/>
<text xml:space="preserve" text-anchor="start" x="56.25" y="-1684.08" font-family="Helvetica,sans-Serif" font-size="9.00" fill="orange">page.tsx</text>
</a>
</g>
</g>
<!-- app/(password&#45;protected)/pzm/page.tsx -->
<g id="node30" class="node">
<title>app/(password&#45;protected)/pzm/page.tsx</title>
<g id="a_node30"><a xlink:href="app/(password-protected)/pzm/page.tsx" xlink:title="no&#45;orphans">
<path fill="#ccffcc" stroke="orange" d="M96.83,-1759.62C96.83,-1759.62 54.67,-1759.62 54.67,-1759.62 51.46,-1759.62 48.25,-1756.42 48.25,-1753.21 48.25,-1753.21 48.25,-1746.79 48.25,-1746.79 48.25,-1743.58 51.46,-1740.38 54.67,-1740.38 54.67,-1740.38 96.83,-1740.38 96.83,-1740.38 100.04,-1740.38 103.25,-1743.58 103.25,-1746.79 103.25,-1746.79 103.25,-1753.21 103.25,-1753.21 103.25,-1756.42 100.04,-1759.62 96.83,-1759.62"/>
<text xml:space="preserve" text-anchor="start" x="56.25" y="-1747.08" font-family="Helvetica,sans-Serif" font-size="9.00" fill="orange">page.tsx</text>
</a>
</g>
</g>
<!-- app/(password&#45;protected)/settings/page.tsx -->
<g id="node31" class="node">
<title>app/(password&#45;protected)/settings/page.tsx</title>
<g id="a_node31"><a xlink:href="app/(password-protected)/settings/page.tsx" xlink:title="no&#45;orphans">
<path fill="#ccffcc" stroke="orange" d="M96.83,-1822.62C96.83,-1822.62 54.67,-1822.62 54.67,-1822.62 51.46,-1822.62 48.25,-1819.42 48.25,-1816.21 48.25,-1816.21 48.25,-1809.79 48.25,-1809.79 48.25,-1806.58 51.46,-1803.38 54.67,-1803.38 54.67,-1803.38 96.83,-1803.38 96.83,-1803.38 100.04,-1803.38 103.25,-1806.58 103.25,-1809.79 103.25,-1809.79 103.25,-1816.21 103.25,-1816.21 103.25,-1819.42 100.04,-1822.62 96.83,-1822.62"/>
<text xml:space="preserve" text-anchor="start" x="56.25" y="-1810.08" font-family="Helvetica,sans-Serif" font-size="9.00" fill="orange">page.tsx</text>
</a>
</g>
</g>
<!-- app/layout.tsx -->
<g id="node32" class="node">
<title>app/layout.tsx</title>
<g id="a_node32"><a xlink:href="app/layout.tsx" xlink:title="layout.tsx">
<path fill="#bbfeff" stroke="black" d="M99.46,-1932.62C99.46,-1932.62 52.04,-1932.62 52.04,-1932.62 48.83,-1932.62 45.62,-1929.42 45.62,-1926.21 45.62,-1926.21 45.62,-1919.79 45.62,-1919.79 45.62,-1916.58 48.83,-1913.38 52.04,-1913.38 52.04,-1913.38 99.46,-1913.38 99.46,-1913.38 102.67,-1913.38 105.88,-1916.58 105.88,-1919.79 105.88,-1919.79 105.88,-1926.21 105.88,-1926.21 105.88,-1929.42 102.67,-1932.62 99.46,-1932.62"/>
<text xml:space="preserve" text-anchor="start" x="53.62" y="-1920.08" font-family="Helvetica,sans-Serif" font-size="9.00">layout.tsx</text>
</a>
</g>
</g>
<!-- app/tw.css -->
<g id="node33" class="node">
<title>app/tw.css</title>
<g id="a_node33"><a xlink:href="app/tw.css" xlink:title="tw.css">
<path fill="#ffffcc" stroke="black" d="M343.96,-1963.62C343.96,-1963.62 302.79,-1963.62 302.79,-1963.62 299.58,-1963.62 296.38,-1960.42 296.38,-1957.21 296.38,-1957.21 296.38,-1950.79 296.38,-1950.79 296.38,-1947.58 299.58,-1944.38 302.79,-1944.38 302.79,-1944.38 343.96,-1944.38 343.96,-1944.38 347.17,-1944.38 350.38,-1947.58 350.38,-1950.79 350.38,-1950.79 350.38,-1957.21 350.38,-1957.21 350.38,-1960.42 347.17,-1963.62 343.96,-1963.62"/>
<text xml:space="preserve" text-anchor="start" x="309.5" y="-1951.08" font-family="Helvetica,sans-Serif" font-size="9.00">tw.css</text>
</a>
</g>
</g>
<!-- app/layout.tsx&#45;&gt;app/tw.css -->
<g id="edge3" class="edge">
<title>app/layout.tsx&#45;&gt;app/tw.css</title>
<path fill="none" stroke="#000000" stroke-width="2" stroke-opacity="0.200000" d="M105.89,-1926.68C151.14,-1932.39 238.15,-1943.37 286.95,-1949.53"/>
<polygon fill="#000000" fill-opacity="0.200000" stroke="#000000" stroke-width="2" stroke-opacity="0.200000" points="286.67,-1951.61 292.89,-1950.28 287.2,-1947.44 286.67,-1951.61"/>
</g>
<!-- app/not&#45;found.tsx -->
<g id="node34" class="node">
<title>app/not&#45;found.tsx</title>
<g id="a_node34"><a xlink:href="app/not-found.tsx" xlink:title="no&#45;orphans">
<path fill="#ccffcc" stroke="orange" d="M107.71,-1963.62C107.71,-1963.62 43.79,-1963.62 43.79,-1963.62 40.58,-1963.62 37.38,-1960.42 37.38,-1957.21 37.38,-1957.21 37.38,-1950.79 37.38,-1950.79 37.38,-1947.58 40.58,-1944.38 43.79,-1944.38 43.79,-1944.38 107.71,-1944.38 107.71,-1944.38 110.92,-1944.38 114.12,-1947.58 114.12,-1950.79 114.12,-1950.79 114.12,-1957.21 114.12,-1957.21 114.12,-1960.42 110.92,-1963.62 107.71,-1963.62"/>
<text xml:space="preserve" text-anchor="start" x="45.38" y="-1951.08" font-family="Helvetica,sans-Serif" font-size="9.00" fill="orange">not&#45;found.tsx</text>
</a>
</g>
</g>
<!-- app/page.tsx -->
<g id="node35" class="node">
<title>app/page.tsx</title>
<g id="a_node35"><a xlink:href="app/page.tsx" xlink:title="no&#45;orphans">
<path fill="#ccffcc" stroke="orange" d="M96.83,-1994.62C96.83,-1994.62 54.67,-1994.62 54.67,-1994.62 51.46,-1994.62 48.25,-1991.42 48.25,-1988.21 48.25,-1988.21 48.25,-1981.79 48.25,-1981.79 48.25,-1978.58 51.46,-1975.38 54.67,-1975.38 54.67,-1975.38 96.83,-1975.38 96.83,-1975.38 100.04,-1975.38 103.25,-1978.58 103.25,-1981.79 103.25,-1981.79 103.25,-1988.21 103.25,-1988.21 103.25,-1991.42 100.04,-1994.62 96.83,-1994.62"/>
<text xml:space="preserve" text-anchor="start" x="56.25" y="-1982.08" font-family="Helvetica,sans-Serif" font-size="9.00" fill="orange">page.tsx</text>
</a>
</g>
</g>
</g>
</svg>
